<?xml version="1.0" encoding="UTF-8"?>
<svg id="Layer_1" xmlns="http://www.w3.org/2000/svg" viewBox="0 0 198 198">
    <defs>
        <style>
            .cls-1 {
                fill: #fff;
            }

            .cls-2 {
                fill: #73000a;
            }
        </style>
    </defs>
    <g>
        <rect class="cls-2" x="0" y="0" width="198.15" height="198.15" />
        <path class="cls-1" d="M194.65,3.5V194.65H3.5V3.5H194.65m3.5-3.5H0V198.15H198.15V0h0Z" />
    </g>
    <path class="cls-1"
        d="M143.22,113.17v-10.11s-11.09-13.55-26.61-13.55c-11.87,0-17.34,6.98-17.34,6.98,0,0-5.47-6.98-17.34-6.98-15.51,0-26.61,13.55-26.61,13.55v10.11s12.66-20.57,31.12-20.57c6.98,0,12.84,6.25,12.84,6.25,0,0,5.86-6.25,12.84-6.25,18.46,0,31.12,20.57,31.12,20.57Zm-36.61,15.29h.03l3.16-7.66h-3.16l3.16-7.66h-3.16l2.54-6.15c6.3,2.33,10.69,11.23,10.69,11.23v-7.38c-5.2-7.14-13.64-5.36-13.64-5.36l-3.16,7.66h3.16l-3.16,7.66h3.16l-3.16,7.66h-.09v27.18l5.26,8.41h3.83l-5.16-8.79h7.99v-1.89h-8.28v-24.91Zm-.18-28.91c18.7,0,24.41,17.82,24.41,17.82v-9.52c-6.12-7.89-11.98-9.45-17.18-9.52-4.13-.05-7.23,1.21-7.23,1.21Zm30.48,24.91l1.57-3.64h-20.44l1.57,3.64h17.3Zm28.81,17.38v3.45h-7.07v-8.28h-3.63v8.28h-7.07v-13.2h-3.64v13.2h-7.4v-18.32h-17.34v37.23h3.64v-33.59h10.07v33.59h3.63v-17.01h7.4v17.01h3.64v-17.01h7.07v17.01h3.63v-17.01h7.07v17.01h3.64v-22.35h-3.64ZM99.27,68c0-2.2,9.21-21,25.31-25.55v-8.61c-12.08,3.07-25.31,23.44-25.31,31.49,0-8.05-13.23-28.42-25.31-31.49v8.61c16.1,4.55,25.31,23.35,25.31,25.55Zm0,9.27s10.84-22.14,39.32-22.14v-8.75c-26.93,0-39.32,27.47-39.32,27.47,0,0-12.4-27.47-39.32-27.47v8.75c28.48,0,39.32,22.14,39.32,22.14Zm-6.96,43.54h3.16l-3.16-7.66h3.16l-3.16-7.66s-8.44-1.79-13.64,5.36v7.38s4.39-8.9,10.69-11.23l2.54,6.15h-3.16l3.16,7.66h-3.16l3.16,7.66h.03v24.91h-8.28v1.89h7.99l-5.16,8.79h3.83l5.26-8.41v-27.18h-.09l-3.16-7.66Zm-23.69-50.15c17.89,0,30.65,14.89,30.65,14.89,0,0,12.76-14.89,30.65-14.89,10.17,0,17.03,4.42,17.03,4.42l.03-9.82s-7.34-2.29-13.43-2.29c-23.17,0-34.28,19.89-34.28,19.89,0,0-11.1-19.89-34.28-19.89-6.09,0-13.43,2.29-13.43,2.29l.03,9.82s6.86-4.42,17.03-4.42Zm30.65-14.91s.2-13.4,11.45-18.88c.06-4.37,.06-7.63,.06-7.63-11.12,5.62-11.51,20.36-11.51,20.36,0,0-.39-14.74-11.51-20.36,0,0,0,3.25,.06,7.63,11.25,5.48,11.45,18.88,11.45,18.88ZM61.62,124.46h17.3l1.57-3.64h-20.44l1.57,3.64Zm23.25-26.12c-5.2,.07-11.06,1.63-17.18,9.52v9.52s5.72-17.82,24.41-17.82c0,0-3.1-1.27-7.23-1.21Zm-6.05-15.48c12.86-.04,20.44,9.37,20.44,9.37,0,0,7.58-9.41,20.44-9.37,18.6,.16,32.25,16.96,32.25,16.96v-12.19s-11.09-9.37-28.51-9.37c-15.76,0-24.19,11.58-24.19,11.58,0,0-8.42-11.58-24.19-11.58-17.42,0-28.51,9.37-28.51,9.37v12.19s13.65-16.8,32.25-16.96Zm-17.21,62.43h-7.4v-13.2h-3.64v13.2h-7.07v-8.28h-3.63v8.28h-7.07v-3.45h-3.64v22.35h3.64v-17.01h7.07v17.01h3.63v-17.01h7.07v17.01h3.64v-17.01h7.4v17.01h3.63v-33.59h10.07v33.59h3.64v-37.23h-17.34v18.32Z" />
</svg>
